<svg xmlns="http://www.w3.org/2000/svg" width="512" height="512" viewBox="0 0 512 512">
  <defs>
    <linearGradient id="bg" x1="64" y1="40" x2="452" y2="472" gradientUnits="userSpaceOnUse">
      <stop stop-color="#182A52"/>
      <stop offset="1" stop-color="#081326"/>
    </linearGradient>
    <linearGradient id="cyan" x1="132" y1="128" x2="390" y2="390" gradientUnits="userSpaceOnUse">
      <stop stop-color="#8AF7FF"/>
      <stop offset="1" stop-color="#22C7E8"/>
    </linearGradient>
  </defs>
  <rect width="512" height="512" rx="112" fill="url(#bg)"/>
  <circle cx="256" cy="256" r="150" fill="none" stroke="#31517E" stroke-width="16"/>
  <path d="M164 222a105 105 0 0 1 178-49l-31 31" fill="none" stroke="url(#cyan)" stroke-width="28" stroke-linecap="round" stroke-linejoin="round"/>
  <path d="m311 157 2 48-48-2" fill="none" stroke="url(#cyan)" stroke-width="28" stroke-linecap="round" stroke-linejoin="round"/>
  <path d="M348 290a105 105 0 0 1-178 49l31-31" fill="none" stroke="#FFFFFF" stroke-width="28" stroke-linecap="round" stroke-linejoin="round"/>
  <path d="m201 355-2-48 48 2" fill="none" stroke="#FFFFFF" stroke-width="28" stroke-linecap="round" stroke-linejoin="round"/>
  <circle cx="256" cy="256" r="46" fill="#FFFFFF"/>
  <path d="M276 232a30 30 0 1 0 0 48" fill="none" stroke="#102346" stroke-width="14" stroke-linecap="round"/>
</svg>
